<?xml version="1.0" encoding="utf-8"?>
<!-- Generator: Adobe Illustrator 26.1.0, SVG Export Plug-In . SVG Version: 6.00 Build 0)  -->
<svg version="1.1" id="Layer_1" xmlns="http://www.w3.org/2000/svg" xmlns:xlink="http://www.w3.org/1999/xlink" x="0px" y="0px"
	 viewBox="0 0 853.1 565" style="enable-background:new 0 0 853.1 565;" xml:space="preserve">
<style type="text/css">
	.st0{fill:#339900;}
	.st1{fill:#FFFFFF;}
	.st2{fill:#602627;}
	.st3{fill:#3F3D56;}
	.st4{fill:#F2F2F2;}
	.st5{fill:#A0616A;}
	.st6{fill:#2F2E41;}
</style>
<path class="st0" d="M819.8,378.1c-6.2,6.7-13.8,11.7-22.1,15.6h0c-0.8,0.4-1.6,0.7-2.4,1.1h0l0,0l0,0h0c0,0,0,0,0,0c0,0,0,0,0,0h0
	l0,0c0,0,0,0,0,0l0,0l0,0h0c0,0,0,0,0,0h0c-5.5,2.4-11.2,4.4-17.1,6.1c-34.2,9.7-70.1,11.6-105.1,5.5c-0.7-0.1-1.3-0.2-2-0.4v-81.1
	c0.7-0.3,1.3-0.6,2-0.8c4.4-1.8,8.8-3.5,13.3-5c6.4-2.2,13-4.1,19.6-5.7c21.6-5.2,43.9-7,66-5.3c4,0.3,8.1,0.7,12.1,1.3
	c8.4,1.2,17.2,3.2,24.9,6.8h0c1.1,0.5,2.2,1.1,3.3,1.7c6.9,3.7,12.7,8.9,16.2,15.9c1.3,2.5,2.2,5.2,2.7,8v0c0.2,1,0.3,1.9,0.4,2.9
	C832.9,356.5,828,369.1,819.8,378.1z"/>
<path class="st1" d="M831.6,344.6c-0.1,0-0.2,0-0.3,0c-17.1,0.8-34.2,1.9-51.3,3.3h0c-0.1,0-0.1,0-0.2,0c-17.5,1.5-35,3.4-52.5,5.7
	c-0.7,0.1-1.5,0.2-2.2,0.3c-12.1,1.6-24.1,3.4-36.2,5.4c-5.3,0.9-10.6,1.8-15.9,2.7c-0.7,0.1-1.3,0.2-2,0.4v-3
	c0.7-0.1,1.3-0.2,2-0.4c17.6-3.1,35.3-5.8,53-8.2c4.5-0.6,8.9-1.2,13.4-1.7c12.9-1.6,25.9-2.9,38.8-4c1-0.1,1.9-0.2,2.8-0.2
	c16.6-1.4,33.2-2.5,49.8-3.2c0.1,0,0.2,0,0.2,0C832.8,341.9,833.1,344.3,831.6,344.6z"/>
<path class="st1" d="M796.1,391.9c-21.3,0.2-42.4-8.9-57.5-23.9c-4.3-4.2-8-9-11.2-14.1c-1-1.6-3.4,0.2-2.4,1.8
	c11.7,18.8,31.2,32.2,52.8,37.1c6.1,1.4,12.4,2.1,18.6,2C798.4,394.8,798,391.8,796.1,391.9L796.1,391.9z"/>
<path class="st1" d="M705.9,313.5c-0.2,0.6-0.7,1-1.2,1.1c-4.9,1.3-9.6,3.1-14.1,5.5c-6.5,3.4-12.4,7.9-17.5,13.2
	c-0.3,0.3-0.5,0.5-0.8,0.8c-0.4,0.4-0.8,0.9-1.2,1.4v-4.4c0.6-0.7,1.3-1.4,2-2c4-3.8,8.5-7.2,13.3-10
	C692.7,316.9,699.2,315,705.9,313.5z"/>
<path class="st1" d="M810.7,315.4c-13.6,5.8-24.9,15.8-32.4,28.6c-0.3,0.8,0,1.6,0.8,2c0.8,0.3,1.6,0,2-0.8
	c7.1-12,17.9-21.5,30.8-27C813.5,317.4,812.4,314.6,810.7,315.4L810.7,315.4z"/>
<path class="st0" d="M851.6,230.4c-2.3,8.8-6.8,16.8-12.3,24.1l0,0c-0.5,0.7-1,1.4-1.6,2v0c-3.8,4.7-8,9.2-12.4,13.4
	c-15.9,15.2-33.9,28-53.4,38.1c-30.7,16-64.9,25.5-98.9,26c-0.3,0-0.5,0-0.8,0c-0.4,0-0.8,0-1.2,0v-45.5c0.6-1.2,1.3-2.5,2-3.7
	c8.8-15.9,19.6-30.6,32-43.8c0.3-0.3,0.6-0.7,0.9-1c4.7-4.9,9.6-9.6,14.7-14.1c19.7-17.4,42.6-30.9,67.3-39.9
	c8-2.9,16.7-5.1,25.2-5.6c1.2-0.1,2.5-0.1,3.7-0.1c7.8,0.1,15.3,2,21.8,6.5c2.3,1.6,4.4,3.6,6.1,5.8c0.6,0.8,1.2,1.6,1.7,2.4v0
	C853.1,205.2,854.7,218.7,851.6,230.4z"/>
<path class="st1" d="M846.5,195.3L846.5,195.3c-0.1,0.1-0.2,0.1-0.2,0.2c-14.8,8.6-29.4,17.5-43.8,26.8c0,0,0,0,0,0
	c-0.1,0-0.1,0.1-0.2,0.1c-14.8,9.5-29.5,19.3-43.9,29.5c-0.6,0.4-1.2,0.9-1.8,1.3c-10,7-19.8,14.2-29.5,21.5
	c-18.4,13.9-36.4,28.2-54,43.1c-0.7,0.6-1.3,1.1-2,1.7v-3.9c0.7-0.6,1.3-1.1,2-1.7c6.7-5.7,13.5-11.3,20.4-16.8
	c2.1-1.6,4.1-3.3,6.2-4.9c18.3-14.6,37-28.6,56.1-42.1h0c3.8-2.6,7.5-5.3,11.3-7.9c10.7-7.4,21.6-14.6,32.5-21.6
	c0.8-0.5,1.6-1,2.4-1.5c14-9,28.2-17.6,42.6-26c0.1,0,0.1-0.1,0.2-0.1C846.3,192.3,847.7,194.3,846.5,195.3z"/>
<path class="st1" d="M837,253.6c-18.8,10.1-41.6,11.8-62,5.6c-5.7-1.8-11.3-4.2-16.4-7.3c-1.7-1-2.9,1.7-1.3,2.7
	c19.1,11.2,42.6,14,64,8.4c6.1-1.6,11.9-3.9,17.4-6.9C840.4,255.2,838.6,252.7,837,253.6L837,253.6z"/>
<path class="st1" d="M696.1,290.2c-0.9-5.2-1.3-10.6-1-15.9c0.7-12.1,4.4-23.9,10.8-34.2c4.7-4.9,9.6-9.6,14.7-14.1
	c0.1,0.6-0.1,1.2-0.6,1.6c-3.7,3.4-7.1,7.2-9.9,11.4C700,254,696,272.2,699.1,290c0.1,0.4,0,0.8-0.3,1.1c-0.7,0.6-1.7,0.5-2.3-0.2
	C696.3,290.7,696.2,290.5,696.1,290.2z"/>
<path class="st1" d="M814.4,179.1c-9.3,11.5-14.7,25.6-15.4,40.4c0.1,0.8,0.8,1.4,1.6,1.4c0.8-0.1,1.4-0.8,1.4-1.6
	c0.7-14,5.9-27.4,14.7-38.2C817.9,179.6,815.6,177.6,814.4,179.1L814.4,179.1z"/>
<path class="st0" d="M710.8,212L710.8,212c-0.1,0.9-0.1,1.7-0.2,2.6v0c-0.7,6.1-1.8,12-3.2,18c-0.7,2.9-1.5,5.8-2.3,8.7
	c-0.1,0.4-0.2,0.7-0.3,1.1v0c-2.4,8.4-5.4,16.6-8.7,24.6c-6.2,14.8-13.9,29-23,42.2c-0.6,1-1.3,1.9-2,2.9V155.5c0.7,0,1.3,0,2,0
	c0.3,0,0.6,0,1,0c2.8,0.1,5.6,0.7,8.3,1.6c0.9,0.3,1.8,0.7,2.8,1c10.9,4.8,19.5,15.3,23.2,26.9C711,193.7,711.5,202.9,710.8,212z"/>
<path class="st1" d="M685,158.1c0,0.1-0.1,0.2-0.1,0.3c-4,7.9-8,15.8-11.9,23.7c-0.7,1.4-1.3,2.8-2,4.1v-6.8c0.7-1.4,1.3-2.7,2-4.1
	c3-6.1,6-12.1,9.1-18.1c0-0.1,0.1-0.1,0.1-0.2C683.2,155.8,685.4,156.7,685,158.1z"/>
<path class="st1" d="M711.1,213.6c-0.2,0.3-0.4,0.6-0.6,1c-2.9,5.1-6.4,9.9-10.4,14.2c-7.7,8.3-16.9,15-27.1,19.8
	c-0.7,0.3-1.3,0.6-2,0.9v-3.2c0.7-0.3,1.3-0.6,2-0.9c14.9-7.1,27.2-18.5,35.4-32.8c0.5-0.8,1.5-1.1,2.2-0.6c0.1,0,0.1,0.1,0.2,0.1
	C711.3,212.3,711.5,213,711.1,213.6C711.1,213.6,711.1,213.6,711.1,213.6z"/>
<path class="st2" d="M673,33v76h-2v-0.8H2v0.8H0V33C0,14.8,14.8,0,33,0h607C658.2,0,673,14.8,673,33z"/>
<path class="st3" d="M640,0H33C14.8,0,0,14.8,0,33v434c0,18.2,14.8,33,33,33h607c18.2,0,33-14.8,33-33V33C673,14.8,658.2,0,640,0z
	 M671,467c0,17.1-13.9,31-31,31H33c-17.1,0-31-13.9-31-31V33C2,15.9,15.9,2,33,2h607c17.1,0,31,13.9,31,31V467z"/>
<circle class="st1" cx="136" cy="54.5" r="20"/>
<circle class="st1" cx="537" cy="54.5" r="20"/>
<path class="st2" d="M193.8,277.5h-119c-10.5,0-19-8.5-19-19v-56.2c0-10.5,8.5-19,19-19h119c10.5,0,19,8.5,19,19v56.2
	C212.8,269,204.3,277.5,193.8,277.5z"/>
<path class="st2" d="M396.2,277.5h-119c-10.5,0-19-8.5-19-19v-56.2c0-10.5,8.5-19,19-19h119c10.5,0,19,8.5,19,19v56.2
	C415.2,269,406.7,277.5,396.2,277.5z"/>
<path class="st4" d="M396.2,422.8h-119c-10.8,0-19.6-8.8-19.6-19.6V347c0-10.8,8.8-19.6,19.6-19.6h119c10.8,0,19.6,8.8,19.6,19.6
	v56.2C415.8,414,407,422.8,396.2,422.8z"/>
<path class="st4" d="M193.4,422.8h-119c-10.8,0-19.6-8.8-19.6-19.6V347c0-10.8,8.8-19.6,19.6-19.6h119c10.8,0,19.6,8.8,19.6,19.6
	v56.2C213,414,204.2,422.8,193.4,422.8z"/>
<path class="st4" d="M598.6,422.8h-119c-10.8,0-19.6-8.8-19.6-19.6V347c0-10.8,8.8-19.6,19.6-19.6h119c10.8,0,19.6,8.8,19.6,19.6
	v56.2C618.2,414,609.4,422.8,598.6,422.8z"/>
<path class="st4" d="M598.6,277.6h-119c-10.8,0-19.6-8.8-19.6-19.6v-56.2c0-10.8,8.8-19.6,19.6-19.6h119c10.8,0,19.6,8.8,19.6,19.6
	V258C618.2,268.8,609.4,277.6,598.6,277.6z"/>
<circle class="st1" cx="134.3" cy="230.4" r="32.3"/>
<path class="st2" d="M131.1,242.7c-0.7,0-1.4-0.2-2-0.7l0,0l-7.6-5.8c-1.5-1.1-1.8-3.2-0.6-4.7s3.2-1.8,4.7-0.6l0,0l4.9,3.8
	l11.6-15.1c1.1-1.5,3.2-1.8,4.7-0.6c0,0,0,0,0,0l-0.1,0.1l0.1-0.1c1.5,1.1,1.8,3.2,0.6,4.7l-13.7,17.8
	C133.1,242.2,132.1,242.7,131.1,242.7z"/>
<circle class="st1" cx="337.3" cy="229.9" r="32.3"/>
<path class="st2" d="M334.1,242.2c-0.7,0-1.4-0.2-2-0.7l0,0l-7.6-5.8c-1.5-1.1-1.8-3.2-0.6-4.7s3.2-1.8,4.7-0.6l0,0l4.9,3.8
	l11.6-15.1c1.1-1.5,3.2-1.8,4.7-0.6c0,0,0,0,0,0l-0.1,0.1l0.1-0.1c1.5,1.1,1.8,3.2,0.6,4.7l-13.7,17.8
	C336.1,241.7,335.1,242.2,334.1,242.2z"/>
<path class="st5" d="M555.3,382.1c4-4.4,3.7-11.2-0.7-15.2c-0.5-0.4-1-0.8-1.5-1.2l-18-96.2l-21.9,8.1l24.6,92
	c-2.8,5.2-0.9,11.8,4.3,14.6C546.5,386.8,552,385.9,555.3,382.1L555.3,382.1z"/>
<path class="st5" d="M380.5,235.4c0.1,0.6,0.1,1.2,0,1.8l42.6,32.8l12.1-5l9.9,17.2l-20.5,10.9c-3.4,1.8-7.6,1.1-10.3-1.6
	l-42.6-43.9c-6.1,1.4-12.2-2.5-13.6-8.6c-1.4-6.1,2.5-12.2,8.6-13.6c6.1-1.4,12.2,2.5,13.6,8.6C380.4,234.5,380.5,234.9,380.5,235.4
	L380.5,235.4z"/>
<polygon class="st5" points="480,552.8 467.8,552.8 461.9,515.6 480,515.6 "/>
<path class="st6" d="M483.2,564.7l-39.5,0v-0.5c0-8.5,6.9-15.4,15.4-15.4c0,0,0,0,0,0h0l24.1,0L483.2,564.7z"/>
<polygon class="st5" points="526,552.8 513.8,552.8 507.9,515.6 526,515.6 "/>
<path class="st6" d="M529.2,564.7l-39.5,0v-0.5c0-8.5,6.9-15.4,15.4-15.4c0,0,0,0,0,0h0l24.1,0L529.2,564.7z"/>
<path class="st6" d="M465.2,545.5c-2.3,0-4.3-1.8-4.5-4.1l-10.7-143.7l0.5,0l73.5-6l0,0.5L530,541c0.1,2.5-1.8,4.6-4.3,4.7
	c-0.1,0-0.1,0-0.2,0H511c-2.2,0-4.1-1.6-4.4-3.8L487,421.6c0-0.3-0.3-0.5-0.6-0.4c-0.2,0-0.4,0.2-0.4,0.5l-0.9,118.7
	c0,2.4-1.9,4.3-4.3,4.5l-15.4,0.6C465.4,545.5,465.3,545.5,465.2,545.5z"/>
<circle class="st5" cx="477.8" cy="191.6" r="24.6"/>
<path class="st3" d="M482.5,406.9c-10.7,0-21.4-1.5-31.8-4.3c-2.1-0.6-3.4-2.6-3.2-4.7c3.3-49.7,4.1-88.3-2.9-114.9
	c-3-11.4-1.6-23.3,3.7-32.9c8-14.3,22.7-23,38.3-22.7l0,0c0.7,0,1.5,0,2.3,0.1c23.8,1.2,42.3,22.7,41.3,47.9l-4.8,120.2
	c0,1.8-1.1,3.4-2.8,4C509.8,404.4,496.2,406.9,482.5,406.9z"/>
<path class="st3" d="M448.7,292.1l-18.4-22.5c-2-2.5-1.6-6.1,0.8-8.1c0.2-0.2,0.5-0.3,0.7-0.5l24.9-14.9c6.9-5.5,17-4.5,22.5,2.4
	c5.5,6.9,4.5,16.9-2.3,22.4l-19.5,21.4c-2.1,2.4-5.8,2.5-8.1,0.4C449.1,292.6,448.9,292.4,448.7,292.1L448.7,292.1z"/>
<path class="st3" d="M506.6,289.3c-1.5-0.7-2.7-2-3.2-3.6l-8.3-27.7c-3.7-8-0.3-17.5,7.7-21.3c8-3.7,17.5-0.3,21.2,7.6l16,24.2
	c1.8,2.7,1,6.2-1.6,8c-0.2,0.2-0.5,0.3-0.7,0.4l-26.4,12.3C509.9,290,508.1,290,506.6,289.3z"/>
<path class="st6" d="M489.9,211.7l-18.2-4.2c-1.9-0.4-4.1-1.2-4.4-3.2c-0.3-2.6,3.3-4.4,3-6.9c-0.3-2.5-3.7-2.8-6.1-3.5
	c-4.6-1.6-7.2-6.6-5.7-11.3c-2.6,3.7-8.5,4-11.9,1s-4-8.3-2-12.3c2.2-4,6.2-6.7,10.7-7.2c4.5-0.5,9,0.3,13,2.4c0.3-2.8,3.8-4,6.7-4
	c12.1,0.1,22.8,7.9,26.6,19.4c3.5,11.3,1.2,23.6-8.6,30.2L489.9,211.7z"/>
<path class="st3" d="M673.3,565h-381c-0.6,0-1-0.4-1-1s0.4-1,1-1h381c0.6,0,1,0.4,1,1S673.8,565,673.3,565z"/>
</svg>
