<?xml version="1.0" encoding="utf-8"?>
<!-- Generator: Adobe Illustrator 26.1.0, SVG Export Plug-In . SVG Version: 6.00 Build 0)  -->
<svg version="1.1" id="Layer_1" xmlns="http://www.w3.org/2000/svg" xmlns:xlink="http://www.w3.org/1999/xlink" x="0px" y="0px"
	 viewBox="0 0 766 663.8" style="enable-background:new 0 0 766 663.8;" xml:space="preserve">
<style type="text/css">
	.st0{fill:#F2F2F2;}
	.st1{fill:#FFB8B8;}
	.st2{fill:#2F2E41;}
	.st3{opacity:0.14;enable-background:new    ;}
	.st4{fill:#602627;}
	.st5{opacity:0.2;enable-background:new    ;}
	.st6{fill:#3F3D56;}
	.st7{fill:#CCCCCC;}
	.st8{opacity:0.1;enable-background:new    ;}
</style>
<path class="st0" d="M75.9,614.5c-7,23.3,3.9,47.1,3.9,47.1s22.1-14,29.1-37.3s-3.9-47.1-3.9-47.1S82.9,591.2,75.9,614.5z"/>
<path class="st0" d="M86.5,615.2c5.9,23.6-6.1,46.9-6.1,46.9s-21.5-15-27.3-38.6s6.1-46.9,6.1-46.9S80.6,591.6,86.5,615.2z"/>
<polygon class="st1" points="435.5,638.6 440,627.2 398,604.6 391.5,621.5 "/>
<path class="st2" d="M459.3,608.8c-7.9-3.1-16.8,0.8-19.9,8.8l0,0l-3,7.7l-4.6,11.9l-1.1,2.9l14.8,5.8l14.3-36.8L459.3,608.8z"/>
<path class="st2" d="M421,610.7l-2.4,5.4l-5.2,12.3l0,0c-12.3,1.6-14.1,5.1-26.6,0.3c-5-1.9-9.9-4.1-14.6-6.5
	c-7-3.6-13.4-7.3-18.4-10.5c-7.6-4.9-12.3-8.5-12.3-8.5s-1.2,1.1-3.5,3c-3,2.6-7.8,6.6-13.9,11.3c-2.3,1.8-4.8,3.7-7.5,5.7
	c-19.6,14.5-44.8-24.3-44.8-24.3s7.1-4.5,8.9-5.4c6-2.8,19.9-9.5,32-15.4c6.2-3,11.9-5.9,15.7-7.9c13.5-7.2,30.4,6.4,30.4,6.4
	L421,610.7z"/>
<path class="st3" d="M421,610.7l-3.3,7.3l-4.4,10.4l0,0c-12.3,1.6-14.1,5.1-26.6,0.3c-5-1.9-9.9-4.1-14.6-6.5
	c-7-3.6-13.4-7.3-18.4-10.5c-7.6-4.9-12.3-8.5-12.3-8.5s-1.2,1.1-3.5,3c-3,2.6-7.8,6.6-13.9,11.3c-2.3,1.8-4.8,3.7-7.5,5.7
	c-19.6,14.5-44.8-24.3-44.8-24.3s7.1-4.5,8.9-5.4c6-2.8,19.9-9.5,32-15.4c6.2-3,11.9-5.9,15.7-7.9c13.5-7.2,30.4,6.4,30.4,6.4
	L421,610.7z"/>
<circle class="st4" cx="183.6" cy="172.3" r="172.3"/>
<path class="st5" d="M56.3,57.2C18.9,144.7,59.5,246,147,283.4c68.1,29.1,147.2,11.5,196.4-43.8c-37.4,87.5-138.7,128.1-226.2,90.7
	C29.8,292.9-10.9,191.6,26.6,104.1C33.9,87,43.9,71.1,56.3,57.2z"/>
<polygon class="st6" points="184.1,172.3 184.5,172.3 193,660.8 175.1,660.8 "/>
<rect x="165.5" y="389.1" transform="matrix(0.4659 -0.8849 0.8849 0.4659 -267.836 366.6156)" class="st6" width="8.5" height="32.2"/>
<path class="st6" d="M765,662.8H1c-0.6,0-1-0.4-1-1s0.4-1,1-1h764c0.6,0,1,0.4,1,1S765.6,662.8,765,662.8z"/>
<path class="st2" d="M237.1,538.6h-60.2c-2.5,0-3.2-3-3.2-5.5l-0.5-53.6c0-18.5,15-33.5,33.5-33.5s33.5,15,33.5,33.5v55.9
	C240.2,538,239.6,538.6,237.1,538.6z"/>
<path class="st1" d="M290.9,540.5c-5.1,0.9-8.5,5.8-7.6,10.9c0.1,0.5,0.2,1.1,0.4,1.6l-15.8,14.5l6.5,11.7l22-20.8
	c4.8-2.1,6.9-7.7,4.8-12.4C299.5,542,295.2,539.7,290.9,540.5L290.9,540.5z"/>
<path class="st7" d="M243.4,606.4c-0.7,0-1.4,0-2.1-0.1c-8.6-0.7-16.3-5.8-20.3-13.6l-25.3-48.6c-3.6-6.8-0.9-15.3,5.9-18.8
	c6.4-3.3,14.3-1.2,18.2,4.9l23.3,52.3l31.7-25.8l18.4,7.1l-31,34.2C257.4,603.4,250.6,606.4,243.4,606.4z"/>
<path class="st6" d="M336.9,531.3l-28.1-28.1c-2-2-5.4-2-7.4,0l-25.3,25.3c-2,2-2,5.4,0,7.4l26.3,26.3c1.9,1.9,5.1,2.1,7.1,0.3
	l27.1-23.4c2.2-1.9,2.4-5.2,0.5-7.4l0,0C337.1,531.5,337,531.4,336.9,531.3z"/>
<polygon class="st0" points="332.9,536.2 304,507.3 280.1,531.2 307.9,559 "/>
<circle class="st4" cx="306.1" cy="532.9" r="11.7"/>
<path class="st8" d="M311.3,542.9c4.7-4.4,5-11.9,0.5-16.6c-3.2-3.4-8.1-4.6-12.5-3c5.3-3.7,12.6-2.4,16.4,2.9
	c3.7,5.3,2.4,12.6-2.9,16.4c-0.9,0.6-1.8,1.1-2.8,1.5C310.4,543.6,310.9,543.3,311.3,542.9z"/>
<path class="st0" d="M300.3,530.6c-1.4,1.3-1.5,6.1,0.7,8.3s5.7,1.2,7.1-0.1s0.1-2.4-2-4.7S301.7,529.2,300.3,530.6z"/>
<circle class="st2" cx="312.2" cy="533.1" r="3.5"/>
<circle class="st2" cx="306" cy="526.4" r="3.5"/>
<circle class="st0" cx="312.2" cy="533.1" r="0.9"/>
<circle class="st0" cx="312.6" cy="530.9" r="0.4"/>
<circle class="st0" cx="306.3" cy="524.3" r="0.4"/>
<circle class="st0" cx="306" cy="526.4" r="0.9"/>
<polygon class="st1" points="432,654.7 437.3,643.6 397.2,617.9 389.4,634.2 "/>
<path class="st2" d="M458,626.8c-7.7-3.7-16.8-0.5-20.5,7.2l0,0l-3.6,7.5l-5.5,11.5l-1.4,2.8l14.3,6.9l17.1-35.6L458,626.8z"/>
<path class="st2" d="M239.6,662.1c-43.9,5.9-33.6-52.7-33.6-52.7l34.9-18.1l14.8,3l16.5,3.3l5.8,1.2c0,0,1.1-0.4,3-1.2
	c6.1-2.3,20.6-7.9,33.1-12.9c6.4-2.6,12.3-5,16.3-6.7c14.1-6.2,29.8,8.8,29.8,8.8l55.3,36.3l-2.4,5.1l-6.5,15.7l-4.3,10.7"/>
<path class="st1" d="M142.1,663.5c5-1.2,8.2-6.2,7-11.2c-0.1-0.5-0.3-1.1-0.5-1.6l15-15.3l-7.1-11.4l-20.9,21.9
	c-4.6,2.4-6.5,8-4.2,12.7C133.5,662.5,137.9,664.5,142.1,663.5L142.1,663.5z"/>
<circle class="st1" cx="215" cy="486.8" r="23.4"/>
<path class="st7" d="M184.5,551.7l20.4,57.8l-0.1,0.2c-2.8,4.7-3.8,8.5-2.7,10.9c0.6,1.3,1.7,2.2,3,2.6l48.2-33.7l-1.7-13.5l0.1-0.2
	c4.7-7.5,6.2-14.2,4.5-20.1c-2.2-7.6-9.1-11.1-9.2-11.1l-0.2-0.1l-24-29.3l-32.1,5.7L184.5,551.7z"/>
<path class="st7" d="M153.6,653.1L140,636.3l32.9-54.3l15.3-47.4l0.5,0.2l-0.5-0.2c3.2-10,14-15.5,24-12.3s15.5,14,12.3,24
	c-0.5,1.7-1.3,3.3-2.3,4.7L194,593.2L153.6,653.1z"/>
<path class="st2" d="M248.2,482.1h-35.5l-0.4-5.1l-1.8,5.1H205l-0.7-10.1l-3.6,10.1h-10.6v-0.5c0-14.6,11.9-26.5,26.5-26.5h5
	c14.6,0,26.5,11.9,26.5,26.5v0.5H248.2z"/>
<path class="st2" d="M215,532.7c-0.3,0.1-4.3,1.5-4.6,1.4l-24.8,4.5v-72.5h28.6l-0.7,0.8c-9.8,11.5-6.9,32.1-0.5,41.4
	c4.3,6.1,6.4,17.2,6.2,19.8C218.2,530.3,218.4,531.7,215,532.7z"/>
<circle class="st6" cx="588.1" cy="324.7" r="114"/>
<path class="st0" d="M559,280.4v97c-0.1,1.4,1,2.6,2.4,2.6c0.5,0,1-0.1,1.4-0.3l76.9-48.5c1.3-0.8,1.6-2.5,0.8-3.8
	c-0.2-0.3-0.5-0.6-0.8-0.8l-76.9-48.5c-1.2-0.7-2.7-0.3-3.4,0.9C559.1,279.4,559,279.9,559,280.4z"/>
</svg>
