<svg id="Layer_1" data-name="Layer 1" xmlns="http://www.w3.org/2000/svg" viewBox="0 0 40 40"><defs><style>.cls-1{fill:#4285f4;}.cls-1,.cls-2,.cls-3,.cls-4{fill-rule:evenodd;}.cls-2{fill:#34a853;}.cls-3{fill:#fbbc05;}.cls-4{fill:#ea4335;}.cls-5{fill:none;}</style></defs><g id="Google-Button"><g id="btn_google_light_normal" data-name="btn google light normal"><g id="logo_googleg_48dp" data-name="logo googleg 48dp"><path id="Shape" class="cls-1" d="M28.64,20.2a11,11,0,0,0-.16-1.84H20v3.49h4.84a4.12,4.12,0,0,1-1.79,2.71v2.26H26a8.78,8.78,0,0,0,2.68-6.62Z"/><path id="Shape-2" data-name="Shape" class="cls-2" d="M20,29a8.62,8.62,0,0,0,6-2.18l-2.91-2.26a5.43,5.43,0,0,1-3.05.86,5.37,5.37,0,0,1-5-3.71H12V24a9,9,0,0,0,8,5Z"/><path id="Shape-3" data-name="Shape" class="cls-3" d="M15,21.71a5.36,5.36,0,0,1,0-3.42V16H12A9,9,0,0,0,12,24l3-2.33Z"/><path id="Shape-4" data-name="Shape" class="cls-4" d="M20,14.58a4.83,4.83,0,0,1,3.44,1.35L26,13.34A8.65,8.65,0,0,0,20,11a9,9,0,0,0-8,5l3,2.33a5.37,5.37,0,0,1,5-3.71Z"/><path id="Shape-5" data-name="Shape" class="cls-5" d="M11,11H29V29H11Z"/></g></g></g></svg>