<?xml version="1.0" standalone="no"?>
<!DOCTYPE svg PUBLIC "-//W3C//DTD SVG 20010904//EN"
 "http://www.w3.org/TR/2001/REC-SVG-20010904/DTD/svg10.dtd">
<svg version="1.0" xmlns="http://www.w3.org/2000/svg"
 width="1250.000000pt" height="1250.000000pt" viewBox="0 0 1250.000000 1250.000000"
 preserveAspectRatio="xMidYMid meet">
<metadata>
Created by potrace 1.11, written by Peter Selinger 2001-2013
</metadata>
<g transform="translate(0.000000,1250.000000) scale(0.100000,-0.100000)"
fill="#000000" stroke="none">
<path d="M5880 12304 c-374 -26 -524 -42 -770 -84 -2019 -344 -3745 -1752
-4504 -3673 -553 -1399 -553 -2965 0 -4364 725 -1835 2318 -3195 4244 -3622
429 -95 810 -135 1285 -135 396 0 632 19 1000 80 1918 320 3593 1606 4404
3382 719 1574 719 3380 0 4954 -473 1038 -1265 1941 -2238 2553 -815 513
-1721 814 -2691 895 -131 11 -635 21 -730 14z m-1590 -2274 l0 -1060 835 0
835 0 0 -440 0 -440 -835 0 -835 0 0 -441 0 -442 38 7 c374 64 706 35 956 -84
l60 -29 88 85 c291 280 695 407 1244 390 217 -7 550 -52 677 -92 9 -3 17 -3
17 -1 0 3 -15 45 -34 93 -60 156 -106 352 -126 536 -5 54 -10 221 -10 373 l0
275 125 0 125 0 0 -291 c0 -313 10 -419 55 -599 39 -153 113 -331 184 -442 26
-41 37 -49 93 -67 134 -41 133 -41 317 -266 95 -115 184 -218 199 -227 58 -38
340 -116 364 -102 4 3 8 67 8 143 l0 139 -47 7 c-130 19 -301 96 -431 195
-253 191 -434 512 -487 864 -11 74 -15 182 -15 375 l0 271 124 0 124 0 5 -317
c4 -308 5 -321 31 -412 103 -362 345 -609 669 -685 l27 -6 0 140 c0 125 -2
141 -17 146 -213 71 -371 243 -446 483 -18 59 -21 98 -25 359 l-4 292 121 0
121 0 1 -192 c0 -106 2 -222 5 -258 7 -93 37 -187 81 -250 38 -53 126 -130
151 -130 9 0 12 90 12 415 l0 415 120 0 120 0 0 -415 c0 -228 2 -415 5 -415 3
0 23 9 43 19 54 27 119 102 153 175 39 83 48 167 49 424 l0 212 120 0 120 0 0
-267 c0 -235 -3 -279 -20 -353 -55 -227 -195 -402 -390 -487 l-75 -32 -3 -141
c-1 -77 -1 -140 0 -140 2 0 37 9 77 20 313 87 550 362 633 735 16 74 20 142
25 378 l6 287 119 0 120 0 -5 -322 c-5 -354 -9 -383 -73 -578 -87 -261 -263
-503 -466 -641 -93 -63 -235 -127 -338 -152 l-95 -24 -3 -133 c-1 -73 1 -137
5 -141 10 -10 167 22 253 51 427 148 772 544 900 1032 50 189 60 288 67 611
l6 297 120 0 119 0 -4 -342 c-5 -320 -7 -352 -32 -482 -29 -150 -93 -353 -151
-481 -167 -364 -454 -672 -778 -833 -141 -71 -241 -105 -370 -128 -51 -9 -102
-18 -115 -20 -22 -4 -23 -5 -20 -151 l3 -147 120 -13 c320 -35 581 -151 612
-270 5 -21 0 -31 -21 -49 -35 -31 -77 -42 -226 -60 -69 -9 -140 -18 -158 -20
l-33 -5 20 -27 c11 -15 102 -126 203 -247 152 -183 254 -306 439 -530 10 -11
75 -90 145 -175 71 -85 180 -218 244 -295 150 -181 403 -487 452 -546 40 -49
49 -75 22 -65 -10 4 -34 -11 -68 -44 l-53 -50 -54 29 c-123 67 -290 112 -524
142 -137 18 -195 20 -405 16 -386 -8 -685 -58 -1045 -176 -212 -69 -515 -203
-643 -284 -47 -31 -47 -28 -10 -141 80 -243 288 -427 653 -576 44 -18 84 -36
88 -40 8 -7 -21 -73 -55 -122 l-18 -26 -113 48 c-428 183 -667 414 -748 723
-9 38 -19 71 -22 73 -14 15 -157 27 -317 27 -268 1 -484 -27 -832 -107 -398
-92 -921 -309 -1294 -539 -294 -181 -566 -408 -744 -620 -54 -65 -56 -66 -105
-66 -50 -1 -52 0 -90 51 l-40 52 -3 -417 -2 -417 -440 0 -440 0 0 1014 0 1014
-277 374 c-153 205 -281 378 -286 383 -25 32 -305 408 -317 426 -16 23 -178
241 -357 481 -71 93 -113 159 -113 174 0 51 131 258 242 381 21 24 46 62 55
85 119 301 356 611 663 865 87 72 364 263 381 263 5 0 9 244 9 610 l0 610
-835 0 -835 0 0 440 0 440 835 0 835 0 0 1060 0 1060 440 0 440 0 0 -1060z
m3068 -637 c94 -244 109 -377 51 -439 -31 -33 -36 -30 -37 19 -1 47 -38 177
-51 177 -16 0 -54 -151 -48 -192 5 -38 5 -39 -16 -25 -58 39 -70 125 -37 266
22 89 90 271 101 271 4 0 21 -35 37 -77z m490 0 c93 -241 108 -377 49 -440
-30 -33 -37 -29 -37 21 0 48 -36 176 -49 176 -15 0 -46 -114 -46 -172 0 -51
-2 -55 -18 -46 -58 31 -71 124 -37 265 22 93 89 273 101 273 4 0 21 -35 37
-77z m488 5 c54 -142 75 -224 81 -308 5 -78 3 -88 -18 -119 -36 -51 -49 -51
-49 2 0 49 -36 177 -49 177 -15 0 -46 -114 -46 -172 0 -51 -2 -55 -18 -46 -10
5 -27 24 -38 41 -18 28 -20 44 -16 117 3 47 15 117 27 155 32 101 82 225 91
225 4 0 20 -33 35 -72z m493 -10 c45 -115 81 -260 81 -327 0 -60 -23 -111 -58
-130 -18 -10 -19 -7 -15 32 5 46 -30 187 -47 187 -14 0 -50 -127 -50 -177 0
-53 -13 -53 -49 -2 -21 31 -23 41 -18 119 3 47 15 117 27 155 32 103 80 225
89 225 4 0 22 -37 40 -82z m489 0 c68 -189 94 -317 78 -381 -6 -25 -52 -87
-64 -87 -4 0 -7 26 -7 58 0 58 -31 172 -46 172 -17 0 -52 -140 -46 -185 4 -41
3 -44 -15 -34 -59 32 -73 131 -39 274 27 112 86 265 102 265 4 0 21 -37 37
-82z m496 -20 c79 -213 95 -337 54 -398 -33 -48 -48 -49 -48 -3 0 44 -39 183
-51 183 -17 0 -52 -140 -46 -186 2 -24 1 -44 -2 -44 -4 0 -20 14 -36 30 -54
57 -45 198 25 390 35 93 51 130 60 130 3 0 23 -46 44 -102z m481 26 c55 -150
76 -230 81 -309 5 -69 3 -84 -15 -112 -11 -17 -29 -36 -39 -42 -19 -10 -20 -8
-15 28 5 39 -32 191 -48 191 -13 0 -49 -122 -49 -166 0 -53 -10 -60 -41 -28
-22 23 -24 34 -24 122 1 72 7 116 24 172 29 96 81 220 91 220 4 0 20 -34 35
-76z"/>
<path d="M6355 7405 c-345 -38 -603 -146 -799 -337 l-59 -57 46 -56 c26 -30
68 -81 95 -112 26 -32 57 -69 68 -83 12 -14 216 -259 454 -545 238 -286 492
-592 566 -680 158 -190 393 -473 594 -715 79 -96 147 -177 150 -180 6 -6 124
-147 209 -252 35 -43 65 -78 66 -78 1 0 27 23 56 51 239 228 521 381 819 446
130 28 447 25 591 -4 249 -52 530 -162 747 -295 67 -41 72 -43 72 -29 0 8 -18
31 -88 116 -75 90 -339 408 -437 526 -400 483 -606 733 -659 798 -34 41 -88
106 -121 145 -33 39 -79 94 -101 121 -49 60 -424 513 -652 788 -91 109 -177
204 -193 212 -45 24 -261 90 -419 128 -201 50 -357 76 -550 93 -195 16 -293
16 -455 -1z"/>
<path d="M4565 7079 c-107 -8 -317 -44 -371 -63 -22 -7 -55 -16 -75 -20 -46
-8 -265 -88 -339 -123 -30 -14 -79 -37 -109 -50 -29 -13 -101 -51 -158 -84
-359 -207 -636 -463 -837 -771 -57 -88 -136 -244 -136 -269 0 -8 123 -179 272
-380 335 -450 291 -390 403 -544 53 -71 108 -146 123 -165 26 -34 402 -540
646 -869 252 -342 397 -537 411 -554 14 -16 19 -13 62 50 171 251 467 553 737
753 261 193 619 378 861 445 268 74 401 95 612 95 303 0 540 -63 777 -207 49
-30 91 -52 93 -49 2 2 -83 109 -190 238 -478 574 -912 1096 -942 1133 -19 22
-161 193 -317 381 -156 187 -310 373 -343 413 -33 41 -109 133 -170 205 -60
72 -129 154 -153 183 -51 62 -173 140 -285 184 -153 59 -361 83 -572 68z"/>
<path d="M8620 6473 c0 -5 3 -13 8 -17 4 -4 7 -12 7 -18 0 -6 8 -12 18 -14 12
-2 17 5 17 22 0 13 -4 24 -9 24 -5 0 -16 3 -25 6 -9 3 -16 2 -16 -3z"/>
</g>
</svg>
